HIERARCHY
ROOT Hips
{
	OFFSET 62.890800 8.863803 43.568401
	CHANNELS 6 Xposition Yposition Zposition Zrotation Xrotation Yrotation
	JOINT Chest
	{
		OFFSET -0.160400 1.630001 7.806301
		CHANNELS 6 Xposition Yposition Zposition Zrotation Xrotation Yrotation
		JOINT Chest2
		{
			OFFSET 0.000000 0.000000 3.197998
			CHANNELS 6 Xposition Yposition Zposition Zrotation Xrotation Yrotation
			JOINT Neck
			{
				OFFSET 0.000000 0.000001 7.440701
				CHANNELS 6 Xposition Yposition Zposition Zrotation Xrotation Yrotation
				JOINT Head
				{
					OFFSET 0.000000 0.000000 2.173901
					CHANNELS 6 Xposition Yposition Zposition Zrotation Xrotation Yrotation
					End Site
					{
						OFFSET 0.000000 0.000001 10.420303
					}
				}
			}
			JOINT LeftCollar
			{
				OFFSET 2.426399 -1.880099 4.759399
				CHANNELS 6 Xposition Yposition Zposition Zrotation Xrotation Yrotation
				JOINT LeftShoulder
				{
					OFFSET 4.420197 0.000000 0.000000
					CHANNELS 6 Xposition Yposition Zposition Zrotation Xrotation Yrotation
					JOINT LeftElbow
					{
						OFFSET 0.000000 -0.000001 -10.347099
						CHANNELS 6 Xposition Yposition Zposition Zrotation Xrotation Yrotation
						JOINT LeftWrist
						{
							OFFSET 0.000000 -0.000001 -12.496300
							CHANNELS 6 Xposition Yposition Zposition Zrotation Xrotation Yrotation
							End Site
							{
								OFFSET 0.000000 0.000000 -2.173901
							}
						}
					}
				}
			}
			JOINT RightCollar
			{
				OFFSET -2.781502 -1.903799 5.072601
				CHANNELS 6 Xposition Yposition Zposition Zrotation Xrotation Yrotation
				JOINT RightShoulder
				{
					OFFSET -4.012100 0.000000 0.000000
					CHANNELS 6 Xposition Yposition Zposition Zrotation Xrotation Yrotation
					JOINT RightElbow
					{
						OFFSET 0.000000 -0.000001 -10.346600
						CHANNELS 6 Xposition Yposition Zposition Zrotation Xrotation Yrotation
						JOINT RightWrist
						{
							OFFSET 0.000000 -0.000001 -12.562599
							CHANNELS 6 Xposition Yposition Zposition Zrotation Xrotation Yrotation
							End Site
							{
								OFFSET 0.000000 0.000000 -2.173901
							}
						}
					}
				}
			}
		}
	}
	JOINT LeftHip
	{
		OFFSET 2.047997 -0.047200 -2.693199
		CHANNELS 6 Xposition Yposition Zposition Zrotation Xrotation Yrotation
		JOINT LeftKnee
		{
			OFFSET 0.000000 -0.000001 -18.824400
			CHANNELS 6 Xposition Yposition Zposition Zrotation Xrotation Yrotation
			JOINT LeftAnkle
			{
				OFFSET 0.000000 -0.000002 -19.078199
				CHANNELS 6 Xposition Yposition Zposition Zrotation Xrotation Yrotation
				End Site
				{
					OFFSET 0.000000 -9.342100 0.000001
				}
			}
		}
	}
	JOINT RightHip
	{
		OFFSET -2.129898 -0.022300 -2.538300
		CHANNELS 6 Xposition Yposition Zposition Zrotation Xrotation Yrotation
		JOINT RightKnee
		{
			OFFSET 0.000000 -0.000001 -18.644600
			CHANNELS 6 Xposition Yposition Zposition Zrotation Xrotation Yrotation
			JOINT RightAnkle
			{
				OFFSET 0.000000 -0.000002 -18.801399
				CHANNELS 6 Xposition Yposition Zposition Zrotation Xrotation Yrotation
				End Site
				{
					OFFSET 0.000000 -8.914600 0.000001
				}
			}
		}
	}
}
MOTION
Frames: 9
Frame Time: 0.041667
63.652496 29.643803 43.870182 -455.088729 -1.695152 5.076354 -0.160396 1.630002 7.806309 0.263485 4.342948 6.286739 -0.000005 0.000005 3.198003 -1.246274 -3.360815 0.042254 -0.000006 -0.000002 7.440699 46.578110 -6.854015 -18.199845 0.000004 -0.000003 2.173905 4.595592 -0.998007 5.918943 2.426403 -1.880096 4.759395 -176.726610 177.649013 -181.595387 4.420195 -0.000002 0.000001 -10.473945 18.062097 -83.839384 0.000008 -0.000001 -10.347092 586.693360 -53.525447 -487.791401 -0.000002 0.000001 -12.496308 47.425668 2.759581 339.753335 -2.781510 -1.903794 5.072602 -190.545120 -178.754588 191.683972 -4.012095 0.000004 -0.000003 7.429495 -20.519838 474.897589 0.000006 -0.000005 -10.346591 -421.531955 -2.954894 0.658666 0.000004 -0.000008 -12.562610 1748.820213 -5.470051 7.370557 2.047999 -0.047194 -2.693194 384.188961 -13.916043 -2.999074 -0.000000 0.000004 -18.824402 151.488227 136.350165 -163.836116 0.000001 -0.000002 -19.078205 -372.108706 -7.649898 11.433138 -2.129895 -0.022298 -2.538298 -336.846762 24.569534 20.575544 -0.000001 0.000004 -18.644606 126.448658 170.789495 181.940093 -0.000005 0.000002 -18.801401 30.366020 67.115221 -30.615384
63.574299 29.641705 43.895283 -455.441822 -1.651727 5.286305 -0.160396 1.629995 7.806306 0.444277 4.305372 6.180873 0.000003 0.000003 3.197994 -1.323590 -3.312864 0.037937 -0.000000 0.000004 7.440701 46.587949 -6.969499 -18.148656 -0.000007 0.000004 2.173906 4.517030 -1.023430 5.881791 2.426404 -1.880093 4.759407 -176.700887 177.630230 -181.745747 4.420188 0.000000 0.000004 -10.265090 18.195959 -83.599425 -0.000008 -0.000001 -10.347092 587.321410 -53.525771 -487.128381 -0.000002 -0.000001 -12.496308 47.341499 2.740171 339.734675 -2.781506 -1.903795 5.072609 -190.481927 -178.706463 191.678782 -4.012105 0.000005 -0.000001 7.196860 -20.239628 474.537720 -0.000002 -0.000001 -10.346598 -421.374970 -2.939726 0.611650 0.000003 -0.000005 -12.562595 1748.586238 -5.449993 7.304928 2.048001 -0.047204 -2.693195 384.285130 -13.884013 -3.435709 0.000003 0.000010 -18.824398 152.574364 136.436635 -164.206927 0.000002 0.000003 -19.078205 -372.723450 -7.667063 11.224288 -2.129893 -0.022298 -2.538295 -335.127903 25.873696 19.360286 -0.000001 -0.000000 -18.644602 126.119593 170.447630 181.512318 -0.000002 0.000008 -18.801403 29.855249 67.225474 -30.796015
63.495701 29.647907 43.921986 -455.755574 -1.596333 5.540175 -0.160402 1.629995 7.806321 0.482628 4.237882 6.091785 0.000006 0.000001 3.198002 -1.307594 -3.266982 0.036415 0.000004 -0.000005 7.440697 46.594270 -7.125597 -18.161980 -0.000012 0.000008 2.173906 4.367156 -1.058618 5.881853 2.426408 -1.880104 4.759396 -176.668293 177.657797 -181.972741 4.420193 -0.000002 0.000001 -10.051218 18.294243 -83.314340 0.000006 0.000005 -10.347095 588.074151 -53.658564 -486.196361 -0.000002 0.000000 -12.496307 47.177892 2.629106 339.807758 -2.781496 -1.903807 5.072598 -190.396769 -178.737499 191.538134 -4.012094 -0.000001 -0.000006 6.956633 -20.001243 474.285331 0.000003 0.000007 -10.346585 -421.252081 -2.933731 0.569666 0.000009 -0.000005 -12.562609 1748.369858 -5.371274 7.291945 2.047998 -0.047203 -2.693190 384.432580 -13.888150 -3.921322 0.000002 0.000004 -18.824400 154.214702 136.525537 -164.895547 0.000000 -0.000003 -19.078197 -373.682245 -7.496151 10.613366 -2.129896 -0.022297 -2.538287 -333.464780 26.953072 18.064904 -0.000002 -0.000001 -18.644604 125.750476 169.967126 181.122451 0.000001 -0.000003 -18.801401 29.607224 67.072376 -31.525114
63.417400 29.664204 43.949680 -456.018236 -1.528962 5.808469 -0.160399 1.630004 7.806301 0.448850 4.167937 6.057898 0.000009 0.000004 3.198005 -1.252636 -3.236073 0.036532 -0.000002 -0.000003 7.440695 46.533710 -7.330374 -18.234098 0.000004 0.000008 2.173912 4.176209 -1.095894 5.889955 2.426401 -1.880099 4.759396 -176.652584 177.672782 -182.263762 4.420193 0.000004 -0.000001 -9.838057 18.317604 -83.023156 0.000004 -0.000004 -10.347095 588.810172 -53.847016 -485.268985 -0.000001 -0.000004 -12.496303 46.930845 2.637653 339.992173 -2.781499 -1.903797 5.072604 -190.377822 -178.752812 191.281674 -4.012091 -0.000003 0.000008 6.856469 -19.908740 474.127690 0.000001 -0.000004 -10.346592 -421.208450 -2.923534 0.521943 0.000005 -0.000008 -12.562590 1748.254346 -5.409377 7.519514 2.047997 -0.047208 -2.693200 384.704531 -13.943114 -4.409188 -0.000001 -0.000001 -18.824402 156.213748 136.621009 -165.812855 0.000000 0.000002 -19.078197 -374.914466 -7.109144 9.546256 -2.129897 -0.022307 -2.538303 -332.040658 27.775289 16.788588 -0.000002 0.000010 -18.644600 126.048313 169.281294 180.749577 0.000003 0.000007 -18.801401 28.917194 66.609016 -32.406355
63.324100 29.708206 43.985081 -456.309229 -1.401131 6.225420 -0.160395 1.629986 7.806310 0.297292 4.038265 6.095076 -0.000001 -0.000011 3.197999 -1.145501 -3.159841 0.035419 0.000000 -0.000001 7.440698 46.347314 -7.742377 -18.410715 -0.000006 -0.000001 2.173908 3.941518 -1.148195 5.873450 2.426403 -1.880096 4.759396 -176.537919 177.815902 -182.853685 4.420191 0.000005 0.000008 -9.674558 18.232507 -82.567787 -0.000004 -0.000002 -10.347105 589.935460 -54.371168 -483.640996 0.000000 -0.000003 -12.496298 46.425298 2.626516 340.391411 -2.781500 -1.903797 5.072601 -190.357591 -178.701518 190.811293 -4.012103 0.000001 0.000003 6.806348 -19.952851 473.987152 0.000002 0.000004 -10.346594 -421.304646 -2.911249 0.453325 -0.000001 -0.000008 -12.562593 1748.556295 -5.613846 7.718518 2.048005 -0.047206 -2.693188 385.345503 -14.187224 -5.021146 -0.000007 0.000002 -18.824400 158.817157 136.720088 -167.169590 0.000001 -0.000003 -19.078196 -376.754601 -6.403702 7.829041 -2.129890 -0.022310 -2.538295 -330.723388 28.270018 15.266450 -0.000012 -0.000008 -18.644608 127.130939 168.125926 180.308347 0.000008 0.000004 -18.801395 27.833699 65.898464 -33.513542
63.242001 29.758003 44.017681 -456.560881 -1.262436 6.661923 -0.160397 1.629990 7.806303 0.091823 3.901725 6.146447 0.000008 -0.000003 3.198000 -1.014748 -3.086802 0.034836 0.000008 -0.000011 7.440704 46.145014 -8.183140 -18.629293 -0.000002 0.000008 2.173912 3.713149 -1.205032 5.862085 2.426410 -1.880104 4.759396 -176.394471 177.999320 -183.463170 4.420197 -0.000001 -0.000008 -9.555444 18.152435 -82.144254 0.000003 -0.000007 -10.347103 591.114733 -54.958379 -481.917767 -0.000001 -0.000000 -12.496301 45.879258 2.603216 340.815839 -2.781496 -1.903803 5.072597 -190.342073 -178.650141 190.296447 -4.012104 0.000005 -0.000002 6.823195 -20.091234 473.910927 -0.000001 -0.000002 -10.346586 -421.474144 -2.901381 0.390507 0.000006 0.000002 -12.562600 1749.014737 -5.857327 7.896325 2.047997 -0.047208 -2.693199 386.030298 -14.501431 -5.582829 0.000003 -0.000005 -18.824404 161.255316 136.852648 -168.486956 0.000001 -0.000002 -19.078199 -378.534138 -5.622197 6.086529 -2.129900 -0.022312 -2.538302 -329.817541 28.421899 14.011155 0.000001 0.000003 -18.644602 128.481719 166.894566 179.849372 0.000005 0.000005 -18.801405 26.809292 65.127848 -34.728923
63.170101 29.813705 44.047779 -456.777152 -1.107592 7.070297 -0.160392 1.629998 7.806301 -0.168477 3.746999 6.264214 0.000001 0.000010 3.198002 -0.868605 -3.008365 0.034212 -0.000001 0.000004 7.440696 45.897184 -8.645402 -18.891064 -0.000006 0.000007 2.173900 3.509728 -1.266164 5.854719 2.426403 -1.880099 4.759392 -176.237705 178.211848 -184.101725 4.420197 0.000004 -0.000000 -9.463517 18.055494 -81.738383 0.000012 0.000005 -10.347106 592.359467 -55.594967 -480.051103 -0.000002 -0.000003 -12.496300 45.806527 2.290967 341.418398 -2.781495 -1.903798 5.072598 -190.296734 -178.613518 189.722055 -4.012100 -0.000004 -0.000010 6.883285 -20.353822 473.903168 0.000006 0.000003 -10.346594 -421.661728 -2.914410 0.311927 0.000009 -0.000000 -12.562597 1749.601696 -6.128274 8.133731 2.048008 -0.047203 -2.693200 386.761866 -14.869643 -6.039331 -0.000001 0.000001 -18.824400 163.461522 136.972081 -169.772917 -0.000003 -0.000008 -19.078197 -380.192344 -4.800024 4.283477 -2.129894 -0.022306 -2.538302 -329.312052 28.331451 12.995803 -0.000011 0.000004 -18.644598 130.058727 165.612676 179.382624 0.000009 0.000009 -18.801397 25.796602 64.314851 -35.863619
63.107700 29.874504 44.075279 -456.961375 -0.941506 7.473746 -0.160393 1.629999 7.806300 -0.460268 3.588487 6.412315 0.000002 0.000010 3.198009 -0.463403 -2.925217 0.015502 -0.000007 0.000003 7.440705 45.338048 -9.090922 -19.143926 -0.000003 0.000002 2.173907 3.371038 -1.320918 5.825575 2.426394 -1.880099 4.759406 -176.317454 178.458213 -184.704885 4.420191 0.000006 -0.000001 -9.434659 18.014211 -81.353700 0.000001 0.000006 -10.347102 593.767251 -56.266784 -478.006582 -0.000003 -0.000005 -12.496303 45.372025 2.135770 341.837717 -2.781511 -1.903799 5.072607 -190.499454 -178.558357 189.146475 -4.012100 0.000002 -0.000004 7.022434 -20.727012 473.956607 0.000001 -0.000003 -10.346600 -421.866798 -2.936506 0.239028 0.000001 -0.000008 -12.562594 1750.356733 -6.457216 8.330331 2.048007 -0.047193 -2.693203 388.337618 -15.512710 -6.150912 -0.000007 0.000003 -18.824398 165.010813 136.821653 -171.255560 -0.000001 -0.000005 -19.078197 -382.114960 -4.073947 2.779931 -2.129887 -0.022297 -2.538302 -331.028451 27.368735 13.029720 -0.000002 0.000006 -18.644600 131.982177 164.092986 179.518449 0.000002 -0.000001 -18.801403 26.246720 64.054723 -35.996658
63.053902 29.939304 44.100479 -457.111339 -0.765767 7.892644 -0.160399 1.630004 7.806308 -0.843303 3.419664 6.561440 0.000002 0.000002 3.198001 -0.250558 -2.840174 0.010757 -0.000007 -0.000004 7.440692 44.967138 -9.546919 -19.422959 -0.000001 -0.000002 2.173913 3.276940 -1.385203 5.799038 2.426395 -1.880104 4.759391 -176.151781 178.754015 -185.321924 4.420199 0.000002 -0.000005 -9.437697 18.027014 -80.972924 -0.000005 0.000000 -10.347101 595.327156 -56.948854 -475.752619 -0.000010 -0.000006 -12.496300 45.024938 1.861222 342.248021 -2.781507 -1.903805 5.072598 -190.411385 -178.567004 188.490955 -4.012098 -0.000001 -0.000005 7.168495 -21.136633 474.090042 0.000001 -0.000005 -10.346592 -422.026788 -2.958226 0.184501 0.000001 -0.000002 -12.562595 1751.261159 -6.718703 8.279401 2.047996 -0.047194 -2.693194 388.594952 -15.849457 -6.621909 0.000003 -0.000001 -18.824398 166.286092 137.017679 -171.949452 -0.000000 -0.000002 -19.078196 -382.991738 -3.504976 1.786241 -2.129895 -0.022298 -2.538297 -329.959472 27.386900 11.777381 -0.000009 -0.000004 -18.644598 133.358993 162.923904 178.639937 -0.000003 0.000007 -18.801395 24.793568 63.154449 -37.243765
